<svg width="376" height="254" viewBox="0 0 376 254" fill="none" xmlns="http://www.w3.org/2000/svg">
<path d="M273.2 206.288C270.74 212.194 263.613 216.269 252.648 213.808C236.742 210.285 216.348 194.496 203.886 184.043C187.468 170.263 184.752 166.641 181.208 165.42L183.177 165.972C201.583 176.051 260.838 225.167 273.2 206.288Z" fill="#92353A"/>
<path d="M219.95 252.963H197.134C195.434 250.724 193.944 248.332 192.685 245.817L184.673 227.352C188.283 221.189 191.569 214.842 194.516 208.335C194.516 208.335 203.434 239.616 219.95 252.963Z" fill="#92353A"/>
<path d="M170.795 174.397C168.948 176.349 167.444 178.599 166.346 181.051C157.489 200.366 146.46 218.608 133.47 235.423C128.408 235.869 123.464 237.201 118.863 239.361C138.096 216.21 160.637 171.858 160.637 171.858C161.227 171.858 161.818 171.858 162.408 171.858C161.482 173.338 160.691 174.9 160.046 176.523C158.786 179.988 161.444 181.779 163.747 178.807C164.79 177.449 166.267 175.283 168.019 173.078C168.977 173.444 169.906 173.885 170.795 174.397Z" fill="#92353A"/>
<path d="M197.134 252.963H179.83L175.145 242.176C178.374 237.49 181.799 232.234 184.673 227.352L192.685 245.818C193.944 248.332 195.434 250.724 197.134 252.963Z" fill="#92353A"/>
<path d="M265.425 137.526C265.421 133.144 264.225 128.846 261.964 125.093C259.704 121.339 256.464 118.272 252.593 116.22C248.721 114.168 244.364 113.209 239.989 113.445C235.614 113.681 231.385 115.104 227.757 117.561C224.129 120.017 221.238 123.415 219.395 127.39C217.551 131.365 216.825 135.767 217.293 140.124C217.761 144.48 219.407 148.627 222.053 152.12C224.699 155.612 228.246 158.318 232.313 159.948C234.186 158.074 236.512 156.718 239.065 156.011C234.424 155.45 230.167 153.156 227.147 149.588C224.127 146.02 222.567 141.442 222.781 136.773C222.995 132.103 224.967 127.687 228.3 124.41C231.634 121.133 236.083 119.237 240.755 119.103C245.428 118.969 249.978 120.606 253.494 123.687C257.01 126.768 259.231 131.064 259.712 135.713C260.193 140.363 258.899 145.023 256.088 148.758C253.278 152.493 249.159 155.028 244.558 155.853C247.118 156.475 249.477 157.742 251.408 159.534C255.599 157.583 259.145 154.475 261.628 150.576C264.112 146.676 265.429 142.149 265.425 137.526Z" fill="#DF566B"/>
<path d="M343.518 60.7506C337.448 58.9939 330.982 59.1704 325.017 61.2553C319.052 63.3398 313.884 67.2298 310.23 72.385C305.906 70.3756 301.19 69.3544 296.423 69.3952C291.655 69.4364 286.957 70.5381 282.669 72.6212C277.58 74.6442 273.279 78.2549 270.405 82.9169C266.291 81.9917 259.538 82.3263 251.723 89.8266C253.003 91.2046 254.223 92.6023 255.404 94.0591C259.814 89.7873 264.263 87.7596 268.2 88.1533C267.464 91.1327 267.152 94.2012 267.275 97.2679C267.432 111.717 283.299 111.048 281.98 96.0277C281.781 93.8676 281.116 91.7763 280.032 89.8971C278.948 88.018 277.47 86.3956 275.701 85.1414C277.989 81.7672 281.24 79.1605 285.032 77.6608C288.496 75.9986 292.279 75.103 296.121 75.0354C299.963 74.9674 303.775 75.7283 307.296 77.267C304.435 82.5744 303.444 88.6902 304.481 94.63C305.879 101.284 311.096 104.158 315.525 103.548C325.565 102.17 327.632 85.417 315.033 75.4756C318.058 71.3423 322.283 68.2405 327.133 66.5923C331.983 64.9441 337.223 64.8288 342.14 66.2626C342.507 66.3872 342.895 66.4352 343.28 66.4033C343.666 66.3711 344.041 66.2601 344.382 66.0769C344.722 65.8933 345.022 65.6416 345.261 65.3374C345.5 65.0332 345.674 64.6828 345.772 64.3084C345.87 63.934 345.889 63.5431 345.829 63.1609C345.769 62.7786 345.63 62.4128 345.423 62.0864C345.215 61.76 344.942 61.4797 344.621 61.2635C344.3 61.047 343.938 60.8995 343.558 60.8294L343.518 60.7506ZM276.586 96.5592C276.921 100.221 275.701 102.603 274.775 102.111C274.165 101.796 273.122 100.398 273.082 97.2482C272.987 95.0316 273.152 92.8117 273.574 90.6338C275.273 92.171 276.346 94.2806 276.586 96.5592ZM318.222 91.2046C318.793 99.7483 311.43 99.8467 310.052 93.3898C309.274 88.9086 309.965 84.2963 312.021 80.2396C313.714 81.5718 315.125 83.2272 316.173 85.1095C317.22 86.9919 317.883 89.0639 318.124 91.2046H318.222Z" fill="#0C082B"/>
<path d="M271.921 126.6C276.476 144.526 275.095 163.446 267.984 180.52C274.244 191.76 277.413 204.143 270.169 210.6C268.402 212.179 266.293 213.324 264.007 213.946H264.243C271.803 226.132 273.496 240.758 266.074 253.042H281.153V126.6H271.921Z" fill="#F3BEC7"/>
<path d="M111.993 182.468H95.7126V235.03C97.445 234.774 98.4884 234.695 98.4884 234.695C106.834 226.384 114.683 217.589 121.993 208.355V199.319C118.016 194.11 114.66 188.455 111.993 182.468Z" fill="#DC3B49"/>
<path d="M43.0136 253.81C42.8114 253.81 42.6138 253.747 42.4485 253.631C42.2828 253.515 42.1571 253.351 42.0884 253.16L34.9031 232.549C34.8207 232.301 34.8383 232.03 34.9525 231.795C35.0663 231.56 35.2674 231.378 35.5133 231.289L56.1047 224.123C56.3528 224.041 56.6234 224.059 56.8585 224.173C57.0937 224.287 57.2755 224.488 57.3646 224.734L64.5303 245.325C64.5768 245.446 64.5986 245.576 64.594 245.706C64.5893 245.835 64.5586 245.963 64.5034 246.081C64.4483 246.199 64.3699 246.304 64.2729 246.391C64.1763 246.477 64.0628 246.543 63.9397 246.585C41.9112 254.262 43.2696 253.81 43.0136 253.81ZM37.1079 232.825L43.6436 251.566L62.3845 245.05L55.8488 226.309L37.1079 232.825Z" fill="#0C082B"/>
<path d="M82.1097 238.691V197.134H55.8291V252.964H65.4752C68.9793 245.837 75.6528 241.447 82.1097 238.691Z" fill="#0C082B"/>
<path d="M141.955 77.2672L128.824 77.6215L146.227 47.7384L116.973 65.8494V31.281L100.654 61.7153L83.6649 31.6353L84.6099 66.2431L54.8055 48.762L72.8377 78.1334H38.3875L68.684 94.5317L38.7418 111.639L73.1921 110.733L55.7701 140.597L85.043 122.545V157.152L101.382 126.639L110.182 142.231C111.712 130.933 116.14 120.224 123.037 111.147L137.348 123.49L129.159 110.143H137.801L129.277 102.859L121.816 96.4018C127.441 88.9685 134.244 82.5047 141.955 77.2672Z" fill="#DF566B"/>
<path d="M204.536 57.8569C204.407 57.8791 204.274 57.8752 204.147 57.8462C204.019 57.8168 203.898 57.7628 203.791 57.6869C203.684 57.611 203.593 57.5151 203.523 57.4041C203.454 57.2928 203.406 57.1693 203.385 57.0401C203.362 56.9109 203.366 56.7785 203.395 56.6507C203.424 56.5229 203.479 56.4019 203.554 56.2949C203.63 56.1879 203.726 56.097 203.837 56.0272C203.948 55.9578 204.072 55.9105 204.201 55.8883L243.258 42.2854C243.504 42.2038 243.771 42.222 244.003 42.3362C244.236 42.4504 244.413 42.6516 244.498 42.8957C244.542 43.0184 244.56 43.1487 244.553 43.2786C244.546 43.4086 244.513 43.536 244.456 43.653C244.4 43.7704 244.32 43.8749 244.222 43.9612C244.125 44.0475 244.011 44.1137 243.888 44.1556C202.331 58.6837 204.792 57.8569 204.536 57.8569Z" fill="#0C082B"/>
<path d="M217.293 68.2114C217.032 68.2533 216.765 68.1896 216.55 68.0346C216.336 67.8793 216.193 67.6456 216.151 67.3846C216.109 67.1237 216.173 66.8567 216.328 66.6423C216.483 66.4283 216.717 66.2847 216.978 66.2428H217.194L209.025 42.7773L185.559 50.9272L189.496 62.2663C189.582 62.5272 189.561 62.8118 189.437 63.0573C189.314 63.3029 189.098 63.4893 188.836 63.5752C188.576 63.6615 188.291 63.6404 188.045 63.5169C187.8 63.3931 187.614 63.1769 187.528 62.9159L183.256 50.6516C183.173 50.4036 183.191 50.133 183.305 49.8979C183.419 49.6623 183.62 49.4809 183.866 49.3918L209.182 40.5725C209.305 40.5292 209.435 40.5102 209.565 40.5177C209.695 40.5249 209.822 40.5578 209.939 40.6144C210.056 40.6713 210.161 40.7507 210.248 40.8481C210.334 40.9458 210.4 41.0596 210.442 41.1827L219.261 66.5185C219.304 66.6398 219.323 66.7686 219.315 66.8971C219.308 67.026 219.275 67.1516 219.218 67.2672C219.161 67.3828 219.082 67.4859 218.984 67.5704C218.887 67.6549 218.773 67.7186 218.651 67.7587C218.218 67.9641 217.762 68.1162 217.293 68.2114Z" fill="#0C082B"/>
<path d="M146.66 164.869C146.618 164.746 146.552 164.633 146.465 164.536C146.378 164.439 146.273 164.361 146.155 164.305C146.038 164.25 145.91 164.22 145.78 164.215C145.651 164.21 145.521 164.232 145.4 164.279L109.709 176.7C109.471 176.797 109.28 176.982 109.177 177.218C109.074 177.453 109.067 177.72 109.158 177.96C112.674 187.685 118.02 196.646 124.907 204.359C125.104 204.576 126.206 202.843 126.206 202.843C119.824 195.557 114.755 187.217 111.225 178.196L145.912 166.129C146.046 166.099 146.172 166.042 146.283 165.962C146.395 165.882 146.489 165.779 146.559 165.661C146.629 165.543 146.674 165.412 146.691 165.275C146.709 165.139 146.698 165.001 146.66 164.869Z" fill="#0C082B"/>
<path d="M205.717 63.2309C189.985 60.1714 173.711 61.5902 158.745 67.3256C143.78 73.061 130.726 82.8832 121.068 95.6732C120.949 95.84 120.885 96.0394 120.885 96.2441C120.885 96.4489 120.949 96.6482 121.068 96.815C121.226 97.0512 119.907 96.0079 179.161 147.014C179.296 147.125 179.458 147.2 179.63 147.231C179.802 147.262 179.98 147.248 180.145 147.191L181.563 146.482L123.214 96.126C135.668 80.1278 153.485 69.171 173.381 65.2757C193.278 61.3804 213.912 64.809 231.479 74.9293C249.046 85.0497 262.363 101.18 268.974 120.346C275.585 139.512 275.044 160.421 267.452 179.22C267.831 179.863 268.317 180.435 268.889 180.913C273.826 169.108 276.068 156.35 275.45 143.57C274.833 130.789 271.372 118.306 265.32 107.032C259.269 95.7581 250.778 85.976 240.467 78.3987C230.156 70.8214 218.284 65.6398 205.717 63.2309Z" fill="#0C082B"/>
<path d="M182.705 103.134C181.588 103.13 180.498 102.795 179.571 102.172C178.645 101.549 177.923 100.665 177.499 99.6329C177.074 98.5999 176.965 97.4646 177.185 96.37C177.405 95.2755 177.945 94.2704 178.736 93.4823C179.527 92.6941 180.534 92.158 181.629 91.9414C182.725 91.7252 183.86 91.8384 184.891 92.2664C185.922 92.6945 186.804 93.4186 187.423 94.3474C188.043 95.2762 188.374 96.3675 188.374 97.4842C188.374 98.228 188.227 98.9643 187.942 99.6508C187.657 100.338 187.239 100.961 186.712 101.486C186.186 102.011 185.56 102.427 184.873 102.71C184.185 102.992 183.448 103.137 182.705 103.134ZM182.705 93.803C181.977 93.8069 181.267 94.026 180.665 94.433C180.062 94.8399 179.593 95.4162 179.318 96.0891C179.042 96.762 178.972 97.5018 179.116 98.2144C179.261 98.927 179.612 99.5813 180.128 100.094C180.644 100.607 181.3 100.956 182.013 101.096C182.727 101.237 183.466 101.163 184.138 100.883C184.809 100.604 185.383 100.132 185.787 99.5273C186.19 98.9224 186.406 98.2115 186.406 97.4842C186.406 96.9993 186.31 96.5189 186.123 96.0708C185.937 95.623 185.664 95.2164 185.32 94.8743C184.976 94.5321 184.568 94.2615 184.119 94.0775C183.671 93.8936 183.19 93.8005 182.705 93.803Z" fill="#0C082B"/>
<path d="M197.37 115.714C196.247 115.718 195.148 115.388 194.213 114.766C193.278 114.145 192.548 113.26 192.116 112.223C191.685 111.186 191.571 110.044 191.789 108.943C192.007 107.841 192.548 106.829 193.342 106.035C194.136 105.241 195.148 104.701 196.249 104.483C197.351 104.264 198.492 104.378 199.529 104.81C200.566 105.241 201.451 105.971 202.073 106.907C202.694 107.842 203.024 108.941 203.02 110.064C203.015 111.561 202.418 112.994 201.36 114.053C200.301 115.112 198.867 115.708 197.37 115.714ZM197.37 106.363C196.638 106.359 195.92 106.573 195.309 106.977C194.698 107.381 194.22 107.958 193.937 108.634C193.654 109.31 193.578 110.054 193.718 110.774C193.859 111.493 194.21 112.154 194.727 112.674C195.244 113.193 195.903 113.547 196.621 113.692C197.34 113.836 198.085 113.764 198.762 113.485C199.44 113.205 200.019 112.731 200.426 112.122C200.834 111.513 201.052 110.796 201.052 110.064C201.052 109.086 200.664 108.147 199.975 107.454C199.285 106.76 198.349 106.368 197.37 106.363Z" fill="#0C082B"/>
<path d="M115.615 104.611C108.884 113.478 104.509 123.906 102.898 134.922C101.287 145.938 102.492 157.182 106.402 167.605L161.778 149.317C158.963 146.502 159.141 143.412 161.641 143.589L115.615 104.611Z" fill="#090346"/>
<path d="M312.238 253.535C312.035 253.535 311.838 253.472 311.672 253.356C311.507 253.24 311.381 253.075 311.312 252.885L296.922 211.545C296.878 211.424 296.859 211.297 296.865 211.169C296.872 211.041 296.903 210.916 296.958 210.801C297.013 210.686 297.09 210.582 297.185 210.497C297.281 210.412 297.392 210.346 297.513 210.304L338.853 195.914C339.101 195.832 339.372 195.849 339.607 195.963C339.842 196.077 340.024 196.278 340.113 196.524L354.482 237.865C354.571 238.11 354.56 238.38 354.449 238.617C354.339 238.853 354.138 239.036 353.891 239.125C310.052 254.44 312.494 253.535 312.238 253.535ZM299.107 211.86L312.887 251.231L352.259 237.451L338.479 198.079L299.107 211.86Z" fill="#0C082B"/>
<path d="M321.391 252.963H295.13V112.682H321.391V252.963Z" fill="#DC3B49"/>
<path d="M242.51 149.475C236.86 149.475 232.47 144.179 232.352 138.214C231.899 138.028 231.502 137.727 231.2 137.34C230.899 136.953 230.704 136.495 230.634 136.01C230.565 135.524 230.623 135.029 230.803 134.574C230.984 134.118 231.28 133.717 231.663 133.411C232.172 132.996 232.818 132.785 233.474 132.82C234.293 130.824 235.798 129.185 237.719 128.199C239.638 127.214 241.848 126.947 243.947 127.446C249.243 128.746 252.786 134.671 251.822 140.636C251.584 142.979 250.514 145.16 248.805 146.782C247.097 148.404 244.863 149.359 242.51 149.475ZM232.667 135.872C232.717 136.038 232.818 136.185 232.956 136.291C233.093 136.397 233.261 136.457 233.435 136.462C233.564 136.467 233.691 136.498 233.809 136.552C233.926 136.606 234.032 136.683 234.12 136.778C234.207 136.873 234.276 136.985 234.32 137.106C234.365 137.228 234.385 137.357 234.38 137.486C234.192 139.625 234.737 141.763 235.924 143.552C237.112 145.34 238.872 146.672 240.916 147.329C245.227 148.392 249.203 145.203 249.971 140.36C250.414 138.062 250.005 135.682 248.82 133.663C247.636 131.645 245.756 130.128 243.534 129.395C241.76 129.002 239.903 129.29 238.332 130.202C236.76 131.113 235.589 132.582 235.049 134.317C234.952 134.56 234.765 134.755 234.526 134.862C234.286 134.969 234.015 134.978 233.77 134.887C233.625 134.814 233.461 134.785 233.3 134.805C233.139 134.824 232.987 134.89 232.863 134.995C232.739 135.1 232.649 135.239 232.603 135.395C232.558 135.551 232.56 135.717 232.608 135.872H232.667Z" fill="#0C082B"/>
<path d="M237.352 134.533C236.486 135.99 237.982 137.88 238.829 136.502C239.675 135.124 238.219 133.076 237.352 134.533Z" fill="#0C082B"/>
<path d="M236.801 140.97C236.672 140.961 236.546 140.927 236.43 140.869C236.314 140.812 236.21 140.731 236.126 140.634C235.954 140.436 235.867 140.178 235.886 139.917C235.904 139.656 236.025 139.413 236.223 139.242C236.42 139.07 236.678 138.984 236.939 139.002C237.893 139.015 238.834 138.775 239.664 138.304C240.495 137.833 241.185 137.15 241.664 136.325C241.82 136.113 242.055 135.973 242.315 135.934C242.575 135.895 242.84 135.961 243.051 136.118C243.263 136.274 243.404 136.509 243.442 136.769C243.481 137.029 243.415 137.294 243.258 137.506C242.577 138.595 241.623 139.488 240.49 140.096C239.358 140.703 238.086 141.005 236.801 140.97Z" fill="#0C082B"/>
<path d="M42.6986 195.638L30.1784 193.414C29.9203 193.367 29.6544 193.424 29.4371 193.571C29.2202 193.718 29.0692 193.944 29.0169 194.201C28.9707 194.457 29.0276 194.72 29.1755 194.934C29.3229 195.148 29.5488 195.295 29.8043 195.343L38.722 197.016L10.5712 206.859C10.4419 206.881 10.3183 206.928 10.2073 206.998C10.0962 207.068 10.0001 207.159 9.92419 207.266C9.84835 207.373 9.7943 207.493 9.76513 207.621C9.73596 207.749 9.73227 207.881 9.75421 208.011C9.77619 208.14 9.82343 208.264 9.89319 208.375C9.96295 208.485 10.0539 208.582 10.1608 208.658C10.2678 208.734 10.3886 208.788 10.5164 208.817C10.6443 208.846 10.7766 208.849 10.9058 208.828C11.1618 208.828 9.27191 209.458 39.3717 198.847L33.4659 205.717C33.2963 205.916 33.2121 206.173 33.2325 206.433C33.2529 206.694 33.3757 206.935 33.574 207.105C33.7726 207.275 34.0304 207.359 34.2906 207.338C34.5508 207.318 34.7924 207.195 34.962 206.997L43.2301 197.331C43.3654 197.204 43.4624 197.042 43.5096 196.863C43.5569 196.683 43.5522 196.494 43.4967 196.317C43.4413 196.141 43.3368 195.983 43.1957 195.863C43.0544 195.743 42.8822 195.665 42.6986 195.638Z" fill="#0C082B"/>
<path d="M146.896 71.2038L141.699 62.1876C141.606 62.0456 141.479 61.9289 141.329 61.848C141.18 61.7671 141.012 61.7249 140.843 61.7249C140.673 61.7249 140.505 61.7671 140.356 61.848C140.206 61.9289 140.079 62.0456 139.986 62.1876L134.848 71.2038C134.767 71.3151 134.71 71.4425 134.682 71.5771C134.653 71.7117 134.653 71.8509 134.681 71.9859C134.71 72.1204 134.766 72.2478 134.846 72.3595C134.927 72.4708 135.03 72.5646 135.15 72.6337C135.269 72.7028 135.401 72.7464 135.538 72.7611C135.675 72.7761 135.813 72.7622 135.945 72.7203C136.076 72.6781 136.196 72.609 136.299 72.5174C136.402 72.4257 136.485 72.3137 136.541 72.1881L139.907 66.2823V90.1022C139.912 90.3617 140.018 90.609 140.201 90.7926C140.385 90.9763 140.632 91.0815 140.892 91.0865C141.153 91.0865 141.403 90.9827 141.588 90.7984C141.772 90.6137 141.876 90.3631 141.876 90.1022V66.3611L145.262 72.2668C145.418 72.4458 145.633 72.5621 145.868 72.595C146.103 72.6276 146.342 72.5746 146.541 72.4451C146.74 72.3159 146.885 72.119 146.95 71.891C147.015 71.6626 146.996 71.4189 146.896 71.2038Z" fill="#0C082B"/>
<path d="M251.822 131.62C250.719 128.47 248.081 126.442 243.731 125.399C243.604 125.369 243.484 125.314 243.379 125.237C243.274 125.16 243.186 125.062 243.12 124.95C243.054 124.838 243.011 124.713 242.994 124.584C242.977 124.455 242.987 124.323 243.022 124.198C244.577 118.095 247.274 110.989 251.211 111.757C253.062 112.111 253.436 114.257 253.397 116.107C254.25 115.364 255.173 114.705 256.153 114.139C260.09 111.993 262.235 113.922 261.94 116.737C261.494 119.066 260.532 121.266 259.125 123.174C260.976 123.292 261.684 124.06 261.96 124.73C262.114 125.136 262.174 125.571 262.137 126.004C262.099 126.437 261.965 126.856 261.743 127.23C260.247 129.887 254.755 131.915 252.924 132.21C252.7 132.258 252.466 132.226 252.264 132.118C252.062 132.009 251.905 131.833 251.822 131.62ZM245.168 123.745C246.925 124.13 248.573 124.905 249.99 126.012C251.408 127.12 252.559 128.531 253.357 130.143C255.326 129.553 259.105 127.919 260.031 126.206C260.095 126.081 260.128 125.943 260.128 125.802C260.128 125.662 260.095 125.524 260.031 125.399C260.031 125.399 259.794 125.163 259.105 125.104C258.57 125.035 258.027 125.035 257.491 125.104C256.612 126.246 255.48 127.169 254.184 127.801C252.412 128.45 251.172 127.013 251.664 125.832C252.156 124.651 254.381 123.745 256.448 123.352C257.802 121.684 258.867 119.801 259.598 117.78C260.011 116.501 260.011 115.536 259.598 115.28C259.184 115.024 258.141 115.28 256.94 115.851C255.486 116.734 254.161 117.814 253.003 119.06C252.756 121.085 251.898 122.988 250.542 124.513C250.32 124.7 250.049 124.819 249.761 124.855C249.473 124.891 249.181 124.842 248.92 124.715C248.659 124.587 248.441 124.387 248.292 124.138C248.144 123.889 248.07 123.602 248.081 123.312C248.581 121.332 249.665 119.549 251.192 118.194C251.445 117.043 251.498 115.858 251.349 114.69C251.349 114.473 251.152 113.745 250.837 113.686C249.184 113.371 246.9 117.446 245.089 123.745H245.168Z" fill="#0C082B"/>
<path d="M349.091 172.684C349.07 174.608 348.482 176.483 347.398 178.073C346.315 179.663 344.785 180.896 343.002 181.618C341.218 182.34 339.261 182.518 337.377 182.13C335.493 181.741 333.766 180.803 332.414 179.435C331.061 178.066 330.144 176.328 329.779 174.439C329.413 172.55 329.614 170.595 330.358 168.821C331.101 167.046 332.353 165.531 333.956 164.467C335.559 163.403 337.441 162.838 339.365 162.841C341.954 162.872 344.428 163.923 346.249 165.766C348.069 167.608 349.091 170.094 349.091 172.684Z" fill="#090346"/>
<path d="M339.365 173.728C339.104 173.772 338.836 173.711 338.62 173.558C338.404 173.405 338.258 173.172 338.213 172.911C338.169 172.65 338.23 172.382 338.383 172.166C338.536 171.95 338.769 171.804 339.03 171.759L367.141 161.916C367.403 161.83 367.685 161.851 367.932 161.975C368.179 162.099 368.365 162.315 368.451 162.576C368.537 162.837 368.516 163.121 368.391 163.367C368.269 163.612 368.05 163.799 367.793 163.885C337.613 174.318 339.581 173.728 339.365 173.728Z" fill="#0C082B"/>
<path d="M183.59 117.072C183.419 117.072 183.251 117.028 183.102 116.944C182.953 116.859 182.829 116.737 182.742 116.59C182.654 116.443 182.606 116.276 182.603 116.105C182.6 115.934 182.642 115.765 182.724 115.615L196.504 90.7714C196.632 90.5445 196.845 90.3777 197.096 90.3076C197.347 90.2378 197.616 90.27 197.843 90.3974C198.069 90.5259 198.237 90.7375 198.31 90.9873C198.384 91.2368 198.357 91.5056 198.237 91.7361L184.456 116.639C184.36 116.778 184.231 116.891 184.079 116.967C183.927 117.042 183.76 117.079 183.59 117.072Z" fill="#0C082B"/>
<path d="M138.077 2.95288C138.073 3.532 137.897 4.09717 137.573 4.57714C137.248 5.05676 136.789 5.42972 136.252 5.64877C135.716 5.86747 135.127 5.92295 134.559 5.8077C133.992 5.69209 133.471 5.41111 133.062 5.00021C132.654 4.58931 132.377 4.06674 132.265 3.498C132.154 2.92961 132.213 2.34083 132.435 1.80609C132.658 1.27135 133.034 0.814277 133.516 0.49286C133.998 0.171443 134.564 0 135.143 0C135.53 0 135.913 0.076598 136.271 0.225137C136.628 0.373676 136.952 0.591649 137.224 0.865819C137.497 1.14035 137.713 1.46606 137.859 1.82434C138.005 2.18227 138.079 2.56596 138.077 2.95288Z" fill="#F3BEC7"/>
<path d="M288.555 15.5715C288.551 16.1507 288.376 16.7158 288.051 17.1958C287.727 17.6754 287.267 18.0484 286.731 18.2674C286.195 18.4865 285.606 18.5416 285.038 18.4263C284.47 18.3107 283.949 18.0298 283.541 17.6189C283.133 17.208 282.855 16.6854 282.744 16.117C282.632 15.5483 282.691 14.9595 282.914 14.4247C283.137 13.89 283.512 13.4329 283.995 13.1115C284.476 12.7901 285.043 12.6187 285.622 12.6187C286.009 12.6187 286.392 12.6953 286.749 12.8438C287.106 12.9923 287.431 13.2103 287.703 13.4848C287.976 13.759 288.191 14.0847 288.338 14.443C288.484 14.8013 288.558 15.1846 288.555 15.5715Z" fill="#DC3B49"/>
<path d="M375.016 192.961C375.012 193.54 374.837 194.106 374.511 194.585C374.189 195.065 373.727 195.438 373.19 195.657C372.653 195.876 372.066 195.931 371.497 195.816C370.932 195.7 370.409 195.42 370.001 195.009C369.593 194.597 369.318 194.075 369.203 193.506C369.092 192.938 369.153 192.349 369.375 191.814C369.597 191.279 369.973 190.823 370.456 190.501C370.935 190.18 371.504 190.008 372.084 190.008C372.471 190.008 372.854 190.085 373.208 190.233C373.566 190.382 373.892 190.6 374.164 190.874C374.436 191.149 374.651 191.474 374.797 191.832C374.944 192.191 375.019 192.574 375.016 192.961Z" fill="#DF566B"/>
<path d="M20.4733 131.285C20.4928 131.869 20.3376 132.445 20.0275 132.94C19.7173 133.436 19.2664 133.827 18.7324 134.064C18.1985 134.301 17.6059 134.374 17.0306 134.272C16.4552 134.17 15.9234 133.899 15.5033 133.493C15.0832 133.087 14.7939 132.564 14.6725 131.993C14.5511 131.421 14.6032 130.827 14.822 130.285C15.0408 129.743 15.4164 129.279 15.9007 128.952C16.385 128.625 16.9558 128.451 17.5401 128.45C18.2998 128.455 19.0285 128.752 19.5748 129.28C20.1211 129.808 20.4429 130.526 20.4733 131.285Z" fill="#DC3B49"/>
<path d="M164.909 151.365C164.594 151.089 169.81 148.845 87.9564 177.882C87.688 177.982 87.4693 178.183 87.3469 178.442C87.2241 178.701 87.2069 178.997 87.2993 179.269C87.3913 179.54 87.5853 179.764 87.8405 179.895C88.0953 180.026 88.391 180.052 88.6651 179.968C173.57 152.9 168.137 154.83 168.235 154.377C168.334 153.924 167.684 153.57 164.909 151.365Z" fill="#0C082B"/>
<path d="M192.922 143.726C192.686 143.084 192.207 142.56 191.588 142.269C190.968 141.978 190.259 141.943 189.614 142.171L172.429 148.392C172.333 148.426 172.251 148.489 172.193 148.572C172.135 148.655 172.104 148.754 172.104 148.855C172.104 148.956 172.135 149.054 172.193 149.137C172.251 149.22 172.333 149.283 172.429 149.317C174.452 150.047 176.515 150.659 178.61 151.148C178.826 151.148 178.098 151.62 191.386 147.014C191.703 146.9 191.995 146.724 192.244 146.496C192.493 146.269 192.694 145.995 192.837 145.689C192.98 145.384 193.061 145.053 193.075 144.716C193.09 144.379 193.037 144.043 192.922 143.726Z" fill="#0C082B"/>
<path d="M375.016 251.979H267.728C273.633 240.935 272.767 228.356 267.255 217.273V217.154C266.783 216.229 266.291 215.324 265.779 214.418C267.667 213.724 269.404 212.675 270.897 211.327C286.429 197.351 257.216 158.884 247.274 155.636C236.545 150.931 223.336 163.511 227.45 175.598C215.422 168.57 203.237 161.522 195.815 157.428C174.161 145.478 179.614 152.388 165.755 144.041C161.818 141.659 160.164 142.978 159.633 143.647C158.452 145.124 159.101 147.722 161.168 149.849C163.235 151.975 165.46 153.412 167.074 154.75C159.534 156.718 152.329 159.797 145.695 163.885C139.947 167.585 141.758 173.924 149.022 171.444C149.652 171.227 150.439 170.932 151.306 170.578C150.519 171.463 149.899 172.484 149.475 173.59C145.464 175.667 142.069 178.763 139.632 182.566C127.517 200.952 113.617 218.096 98.134 233.75C95.2008 234.025 77.0898 236.151 67.6997 247.825C66.6481 249.108 65.7372 250.501 64.983 251.979H0.984294C0.723223 251.979 0.472855 252.083 0.288273 252.267C0.103691 252.452 0 252.702 0 252.963C0 253.224 0.103691 253.475 0.288273 253.659C0.472855 253.844 0.723223 253.947 0.984294 253.947H375.016C375.277 253.947 375.528 253.844 375.71 253.659C375.896 253.475 376 253.224 376 252.963C376 252.702 375.896 252.452 375.71 252.267C375.528 252.083 375.277 251.979 375.016 251.979ZM197.646 251.979C196.099 249.902 194.736 247.696 193.571 245.384L185.697 227.352C191.398 217.858 196.203 207.854 200.048 197.469C200.137 197.208 200.118 196.922 199.996 196.675C199.874 196.427 199.659 196.238 199.398 196.15C199.137 196.061 198.852 196.08 198.604 196.201C198.357 196.323 198.168 196.538 198.079 196.799C192.429 212.666 182.33 230.62 169.712 247.845C166.641 245.778 165.361 240.659 159.869 240.659C153.058 240.659 152.821 248.691 147.27 248.691C141.719 248.691 141.699 240.659 134.848 240.659C127.997 240.659 127.801 248.691 122.249 248.691C118.509 248.691 117.406 245.345 114.808 242.785C120.431 239.209 126.818 237.01 133.45 236.368C133.593 236.369 133.734 236.335 133.861 236.27C133.987 236.205 134.097 236.11 134.179 235.994C147.325 219.01 158.469 200.568 167.389 181.031C168.928 177.753 171.201 174.873 174.03 172.614C176.86 170.354 180.171 168.775 183.708 167.999C185.5 169.318 204.733 186.051 206.032 187.114C211.052 191.248 216.466 195.48 222.017 199.378C227.712 205.598 234.455 210.768 241.939 214.654C242.053 214.716 242.178 214.755 242.307 214.769C242.436 214.783 242.566 214.771 242.69 214.735C242.814 214.698 242.93 214.638 243.031 214.556C243.132 214.475 243.216 214.374 243.278 214.261C243.34 214.147 243.379 214.022 243.393 213.893C243.407 213.764 243.395 213.634 243.358 213.51C243.322 213.386 243.261 213.27 243.18 213.169C243.098 213.068 242.998 212.984 242.884 212.922C238.983 210.878 235.274 208.486 231.801 205.776C239.479 210.363 249.833 215.619 258.889 215.619C260.512 215.606 262.128 215.421 263.712 215.068C264.302 216.052 264.834 217.036 265.346 218.04C266.803 237.431 253.337 251.998 229.616 252.018L197.646 251.979ZM180.48 251.979L176.188 242.254C179.115 237.976 181.864 233.704 184.437 229.438L191.76 246.25C192.764 248.243 193.915 250.158 195.205 251.979H180.48ZM166.227 167.822C167.801 166.748 169.475 165.832 171.228 165.085C172.617 164.977 174.012 164.977 175.401 165.085C170.184 167.645 165.952 174.416 162.96 178.275C162.192 179.279 161.463 179.535 161.129 179.338C160.794 179.141 160.519 178.196 160.971 176.936C162.413 173.73 164.174 170.676 166.227 167.822ZM180.874 166.326C181.063 166.414 181.247 166.512 181.425 166.621C177.324 167.865 173.601 170.119 170.598 173.176L169.613 172.723C172.901 168.747 176.996 165.046 180.874 166.345V166.326ZM148.392 169.613C146.03 170.401 144.652 170.086 144.337 169.416C144.022 168.747 144.75 166.877 146.758 165.578C153.309 161.398 160.497 158.313 168.039 156.443L172.369 155.538C172.496 155.512 172.616 155.461 172.724 155.389C172.831 155.317 172.923 155.224 172.994 155.116C173.065 155.008 173.115 154.887 173.139 154.76C173.164 154.634 173.163 154.503 173.137 154.376C173.116 154.249 173.07 154.127 173 154.019C172.93 153.911 172.839 153.818 172.732 153.746C172.625 153.674 172.505 153.625 172.378 153.601C172.251 153.577 172.121 153.58 171.995 153.609L168.983 154.219C168.137 152.9 164.869 150.99 162.389 148.451C160.873 146.896 160.597 145.34 160.991 144.848C161.385 144.356 162.586 144.514 164.554 145.695C178.63 154.179 173.472 147.388 194.693 159.121C210.619 167.94 246.723 189.319 262.117 198.492C262.229 198.561 262.352 198.606 262.481 198.627C262.61 198.647 262.743 198.642 262.869 198.61C262.996 198.579 263.116 198.523 263.221 198.445C263.326 198.367 263.414 198.269 263.481 198.157C263.547 198.044 263.591 197.92 263.609 197.79C263.627 197.66 263.619 197.529 263.585 197.402C263.552 197.276 263.494 197.158 263.414 197.054C263.334 196.951 263.235 196.864 263.121 196.799L257.53 193.413L244.223 175.283C244.066 175.074 243.833 174.936 243.575 174.899C243.316 174.862 243.054 174.929 242.845 175.086C242.636 175.243 242.498 175.476 242.461 175.734C242.424 175.992 242.491 176.255 242.648 176.464L243.553 177.704C243.652 177.881 243.553 178.747 242.687 179.673C241.821 180.598 239.616 182.429 235.187 180.243L230.167 177.291C229.165 175.563 228.584 173.624 228.472 171.63C228.359 169.636 228.717 167.643 229.518 165.814C232.411 159.199 239.675 154.553 246.408 157.467C255.66 160.479 283.417 197.331 269.48 209.871C250.995 226.486 204.3 182.96 185.756 167.054C184.969 166.399 184.119 165.825 183.216 165.341C183.019 165.164 183.315 165.341 181.602 164.514C173.314 160.814 162.054 164.514 154.377 167.349C150.597 168.786 149.514 169.259 148.392 169.633V169.613ZM247.018 187.193C248.103 187.164 249.184 187.038 250.247 186.819L253.219 190.874L247.018 187.193ZM151.817 173.275C152.846 171.783 154.005 170.387 155.282 169.101C158.603 167.818 162.01 166.772 165.479 165.971C159.003 170.125 155.361 173.708 153.294 175.125C151.227 176.543 150.754 174.968 151.817 173.294V173.275ZM98.5671 235.679C98.7958 235.658 99.0106 235.561 99.1774 235.403C114.864 219.606 128.943 202.289 141.207 183.708C143.25 180.459 146.054 177.756 149.376 175.834C149.54 176.386 149.896 176.861 150.38 177.172C150.98 177.504 151.678 177.609 152.349 177.468C153.963 177.113 155.125 175.755 159.101 172.664H160.538C159.918 173.759 159.379 174.897 158.924 176.07C157.566 179.81 160.066 182.094 162.625 180.775C164.219 179.948 164.948 178.275 168.137 174.141L169.003 174.535C167.588 176.211 166.397 178.063 165.46 180.047C156.716 199.376 145.784 217.639 132.88 234.478C123.233 235.265 112.859 239.931 106.894 247.175C104.473 244.912 102.957 240.659 97.9765 240.659C91.1455 240.659 90.988 248.691 85.3973 248.691C81.3223 248.691 80.3577 244.754 77.267 242.234C83.8639 238.663 91.1036 236.435 98.5671 235.679ZM174.929 244.144L178.334 252.018H169.2C170.873 249.794 171.917 248.416 174.929 244.144Z" fill="#0C082B"/>
</svg>
